<svg xmlns="http://www.w3.org/2000/svg" viewBox="424.5 277 350 350" width="350" height="350"><defs>
    <style>
      .cls-1 {
        fill: #c2c2ff;
      }
    </style>
  </defs><g>
    <g>
      <path class="cls-1" d="M626.33,601.64c-1.65,0-3.11-1.2-3.39-2.88l-.14-.85c-.31-1.87.96-3.64,2.83-3.94,1.88-.3,3.64.96,3.94,2.83l.14.85c.31,1.87-.96,3.64-2.83,3.94-.19.03-.37.05-.56.05ZM623.69,585.54c-1.65,0-3.11-1.19-3.38-2.88l-.14-.85c-.31-1.87.96-3.64,2.83-3.95,1.87-.31,3.64.96,3.95,2.83l.14.85c.31,1.87-.96,3.64-2.83,3.95-.19.03-.38.05-.56.05ZM621.05,569.45c-1.65,0-3.11-1.2-3.38-2.88l-.14-.85c-.31-1.87.96-3.64,2.83-3.95,1.87-.31,3.64.96,3.95,2.83l.14.85c.31,1.87-.96,3.64-2.83,3.95-.19.03-.38.05-.56.05ZM618.41,553.35c-1.65,0-3.11-1.2-3.38-2.88l-.14-.85c-.31-1.87.96-3.64,2.83-3.95,1.87-.31,3.64.96,3.95,2.83l.14.85c.31,1.87-.96,3.64-2.83,3.95-.19.03-.38.05-.56.05ZM615.77,537.25c-1.65,0-3.11-1.2-3.39-2.88l-.14-.85c-.31-1.87.96-3.64,2.83-3.94,1.88-.3,3.64.96,3.94,2.83l.14.85c.31,1.87-.96,3.64-2.83,3.94-.19.03-.37.05-.56.05ZM613.12,521.15c-1.65,0-3.11-1.2-3.38-2.88l-.14-.85c-.31-1.87.96-3.64,2.83-3.95,1.87-.31,3.64.96,3.95,2.83l.14.85c.31,1.87-.96,3.64-2.83,3.95-.19.03-.38.05-.56.05ZM610.48,505.06c-1.65,0-3.11-1.2-3.38-2.88l-.14-.85c-.31-1.87.96-3.64,2.83-3.95,1.87-.31,3.64.96,3.95,2.83l.14.85c.31,1.87-.96,3.64-2.83,3.95-.19.03-.38.05-.56.05ZM607.84,488.96c-1.65,0-3.11-1.2-3.39-2.88l-.14-.85c-.31-1.87.96-3.64,2.83-3.94,1.87-.3,3.64.96,3.94,2.83l.14.85c.31,1.87-.96,3.64-2.83,3.94-.19.03-.37.05-.56.05ZM605.2,472.86c-1.65,0-3.11-1.2-3.38-2.88l-.14-.85c-.31-1.87.96-3.64,2.83-3.95,1.87-.31,3.64.96,3.95,2.83l.14.85c.31,1.87-.96,3.64-2.83,3.95-.19.03-.38.05-.56.05ZM602.56,456.77c-1.65,0-3.11-1.2-3.38-2.88l-.14-.85c-.31-1.87.96-3.64,2.83-3.95,1.87-.31,3.64.96,3.95,2.83l.14.85c.31,1.87-.96,3.64-2.83,3.95-.19.03-.38.05-.56.05Z"></path>
      <path class="cls-1" d="M590.36,514.36c-18.91,0-37.93-6.37-53.54-19.43-41.16-34.42-46.64-95.91-12.22-137.07,19.43-23.24,46.75-37.52,76.93-40.2,30.17-2.69,59.59,6.53,82.82,25.97,1.45,1.22,1.65,3.38.43,4.84-1.22,1.45-3.38,1.65-4.84.43-21.83-18.26-49.46-26.92-77.81-24.39-28.35,2.53-54.01,15.94-72.27,37.77-31.99,38.25-26.9,95.4,11.35,127.39,32.44,27.13,80.9,22.81,108.03-9.63,22.98-27.48,19.32-68.53-8.16-91.51-11.26-9.42-25.51-13.88-40.13-12.58-14.62,1.3-27.86,8.22-37.27,19.48-16.41,19.63-13.8,48.95,5.83,65.36,8.01,6.7,18.15,9.88,28.56,8.95,10.4-.93,19.82-5.85,26.53-13.86,11.63-13.91,9.78-34.68-4.13-46.31-11.66-9.75-29.07-8.2-38.82,3.46-8.14,9.74-6.85,24.29,2.89,32.43,1.45,1.22,1.65,3.38.43,4.84-1.22,1.45-3.38,1.65-4.84.43-12.64-10.57-14.33-29.46-3.75-42.11,12.18-14.56,33.93-16.5,48.5-4.32,16.81,14.06,19.05,39.18,4.99,55.99-7.88,9.42-18.95,15.21-31.18,16.3-12.23,1.09-24.15-2.65-33.58-10.53-10.91-9.13-17.62-21.96-18.88-36.13-1.26-14.17,3.07-27.99,12.2-38.9,10.59-12.67,25.48-20.45,41.93-21.92,16.44-1.46,32.48,3.56,45.15,14.15,30.38,25.41,34.43,70.8,9.02,101.18-16.51,19.73-40.26,29.92-64.17,29.92Z"></path>
      <circle class="cls-1" cx="582.35" cy="448.1" r="8.1"></circle>
      <path class="cls-1" d="M609.91,420.04c4.73,4.73,4.73,12.4,0,17.13s-12.4,4.73-17.13,0-4.73-12.4,0-17.13c4.73-4.73,12.4-4.73,17.13,0ZM595.83,423.08c-3.05,3.05-3.05,7.99,0,11.04s7.99,3.05,11.04,0c3.05-3.05,3.05-7.99,0-11.04s-7.99-3.05-11.04,0ZM597.45,424.7c-2.16,2.16-2.16,5.65,0,7.8s5.65,2.16,7.8,0,2.16-5.65,0-7.8-5.65-2.16-7.8,0Z"></path>
      <path class="cls-1" d="M577.54,485.73c2.59,2.59,2.59,6.79,0,9.37-2.59,2.59-6.79,2.59-9.37,0s-2.59-6.79,0-9.37,6.79-2.59,9.37,0ZM569.83,487.39c-1.67,1.67-1.67,4.37,0,6.04s4.37,1.67,6.04,0,1.67-4.37,0-6.04-4.37-1.67-6.04,0ZM570.71,488.28c-1.18,1.18-1.18,3.09,0,4.27s3.09,1.18,4.27,0,1.18-3.09,0-4.27-3.09-1.18-4.27,0Z"></path>
      <path class="cls-1" d="M515.1,300.6c4.45,4.45,4.45,11.67,0,16.12s-11.67,4.45-16.12,0c-4.45-4.45-4.45-11.67,0-16.12,4.45-4.45,11.67-4.45,16.12,0ZM501.84,303.47c-2.87,2.87-2.87,7.52,0,10.39s7.52,2.87,10.39,0c2.87-2.87,2.87-7.52,0-10.39-2.87-2.87-7.52-2.87-10.39,0ZM503.37,304.99c-2.03,2.03-2.03,5.32,0,7.34s5.32,2.03,7.34,0,2.03-5.32,0-7.34-5.32-2.03-7.34,0Z"></path>
      <path class="cls-1" d="M536.37,411.32c3.23,3.23,3.23,8.46,0,11.69-3.23,3.23-8.46,3.23-11.69,0-3.23-3.23-3.23-8.46,0-11.69,3.23-3.23,8.46-3.23,11.69,0ZM526.76,413.4c-2.08,2.08-2.08,5.45,0,7.53s5.45,2.08,7.53,0,2.08-5.45,0-7.53-5.45-2.08-7.53,0ZM527.87,414.5c-1.47,1.47-1.47,3.86,0,5.33s3.86,1.47,5.33,0,1.47-3.86,0-5.33-3.86-1.47-5.33,0Z"></path>
      <g>
        <path class="cls-1" d="M639.45,406.43c-.88,0-1.76-.34-2.43-1.01-1.34-1.34-1.34-3.52,0-4.86l.3-.3c1.34-1.34,3.52-1.34,4.86,0,1.34,1.34,1.34,3.52,0,4.86l-.3.3c-.67.67-1.55,1.01-2.43,1.01Z"></path>
        <path class="cls-1" d="M650.73,395.14c-.88,0-1.76-.34-2.43-1.01-1.34-1.34-1.34-3.52,0-4.86l.61-.61c1.34-1.34,3.52-1.34,4.86,0,1.34,1.34,1.34,3.52,0,4.86l-.61.61c-.67.67-1.55,1.01-2.43,1.01ZM662.33,383.54c-.88,0-1.76-.34-2.43-1.01-1.34-1.34-1.34-3.52,0-4.86l.61-.61c1.34-1.34,3.52-1.34,4.86,0,1.34,1.34,1.34,3.52,0,4.86l-.61.61c-.67.67-1.55,1.01-2.43,1.01ZM673.92,371.95c-.88,0-1.76-.34-2.43-1.01-1.34-1.34-1.34-3.52,0-4.86l.61-.61c1.34-1.34,3.51-1.34,4.86,0,1.34,1.34,1.34,3.52,0,4.86l-.61.61c-.67.67-1.55,1.01-2.43,1.01ZM685.52,360.35c-.88,0-1.76-.33-2.43-1-1.34-1.34-1.34-3.51,0-4.86l.61-.61c1.34-1.34,3.51-1.34,4.86,0,1.34,1.34,1.34,3.51,0,4.86l-.61.61c-.67.67-1.55,1.01-2.43,1.01ZM697.11,348.76c-.88,0-1.76-.33-2.43-1-1.34-1.34-1.34-3.51,0-4.86l.61-.61c1.34-1.34,3.52-1.34,4.86,0,1.34,1.34,1.34,3.51,0,4.86l-.61.61c-.67.67-1.55,1.01-2.43,1.01ZM708.71,337.16c-.88,0-1.76-.34-2.43-1.01-1.34-1.34-1.34-3.52,0-4.86l.61-.61c1.34-1.34,3.52-1.34,4.86,0,1.34,1.34,1.34,3.52,0,4.86l-.61.61c-.67.67-1.55,1.01-2.43,1.01ZM720.3,325.57c-.88,0-1.76-.34-2.43-1.01-1.34-1.34-1.34-3.52,0-4.86l.61-.61c1.34-1.34,3.52-1.34,4.86,0,1.34,1.34,1.34,3.52,0,4.86l-.61.61c-.67.67-1.55,1.01-2.43,1.01ZM731.9,313.97c-.88,0-1.76-.34-2.43-1.01-1.34-1.34-1.34-3.52,0-4.86l.61-.61c1.34-1.34,3.52-1.34,4.86,0,1.34,1.34,1.34,3.52,0,4.86l-.61.61c-.67.67-1.55,1.01-2.43,1.01Z"></path>
        <path class="cls-1" d="M743.5,302.38c-.88,0-1.76-.34-2.43-1.01-1.34-1.34-1.34-3.52,0-4.86l.3-.3c1.34-1.34,3.52-1.34,4.86,0,1.34,1.34,1.34,3.52,0,4.86l-.3.3c-.67.67-1.55,1.01-2.43,1.01Z"></path>
      </g>
      <path class="cls-1" d="M727.46,314.39c4.07,4.07,4.07,10.66,0,14.73s-10.66,4.07-14.73,0-4.07-10.66,0-14.73,10.66-4.07,14.73,0ZM715.35,317.01c-2.62,2.62-2.62,6.87,0,9.49s6.87,2.62,9.49,0,2.62-6.87,0-9.49-6.87-2.62-9.49,0ZM716.74,318.4c-1.85,1.85-1.85,4.86,0,6.71,1.85,1.85,4.86,1.85,6.71,0s1.85-4.86,0-6.71-4.86-1.85-6.71,0Z"></path>
      <path class="cls-1" d="M722.98,417.54c4.07,4.07,4.07,10.66,0,14.73s-10.66,4.07-14.73,0-4.07-10.66,0-14.73,10.66-4.07,14.73,0ZM710.86,420.16c-2.62,2.62-2.62,6.87,0,9.49s6.87,2.62,9.49,0c2.62-2.62,2.62-6.87,0-9.49s-6.87-2.62-9.49,0ZM712.25,421.55c-1.85,1.85-1.85,4.86,0,6.71s4.86,1.85,6.71,0,1.85-4.86,0-6.71c-1.85-1.85-4.86-1.85-6.71,0Z"></path>
      <circle class="cls-1" cx="667.29" cy="428.85" r="11.9"></circle>
      <circle class="cls-1" cx="704.61" cy="514.81" r="4.03"></circle>
      <circle class="cls-1" cx="467.19" cy="405.88" r="4.03"></circle>
      <circle class="cls-1" cx="557.84" cy="397.03" r="10.68"></circle>
      <circle class="cls-1" cx="626.86" cy="458.17" r="11.13"></circle>
      <circle class="cls-1" cx="524.38" cy="365.06" r="9.7"></circle>
      <circle class="cls-1" cx="658.18" cy="331.67" r="12.65"></circle>
      <circle class="cls-1" cx="621.15" cy="405.73" r="6.63"></circle>
      <circle class="cls-1" cx="535.95" cy="488.83" r="11.01"></circle>
      <path class="cls-1" d="M579.23,429.06c-.19,0-.39-.02-.59-.05l-.85-.15c-1.87-.32-3.12-2.1-2.8-3.97.32-1.87,2.1-3.12,3.97-2.8l.85.15c1.87.32,3.12,2.1,2.8,3.97-.29,1.67-1.74,2.85-3.38,2.85ZM563.16,426.28c-.19,0-.39-.02-.59-.05l-.85-.15c-1.87-.32-3.12-2.1-2.8-3.97s2.1-3.12,3.97-2.8l.85.15c1.87.32,3.12,2.1,2.8,3.97-.29,1.67-1.74,2.85-3.38,2.85ZM547.09,423.5c-.19,0-.39-.02-.59-.05l-.85-.15c-1.87-.32-3.12-2.1-2.8-3.97.32-1.87,2.1-3.12,3.97-2.8l.85.15c1.87.32,3.12,2.1,2.8,3.97-.29,1.67-1.74,2.85-3.38,2.85ZM531.01,420.72c-.2,0-.39-.02-.59-.05l-.85-.15c-1.87-.32-3.12-2.1-2.8-3.97.32-1.87,2.1-3.12,3.97-2.8l.85.15c1.87.32,3.12,2.1,2.8,3.97-.29,1.67-1.74,2.85-3.38,2.85ZM514.94,417.94c-.19,0-.39-.02-.59-.05l-.85-.15c-1.87-.32-3.12-2.1-2.8-3.97.32-1.87,2.1-3.12,3.97-2.8l.85.15c1.87.32,3.12,2.1,2.8,3.97-.29,1.67-1.74,2.85-3.38,2.85ZM498.86,415.16c-.19,0-.39-.02-.59-.05l-.85-.15c-1.87-.32-3.12-2.1-2.8-3.97s2.1-3.12,3.97-2.8l.85.15c1.87.32,3.12,2.1,2.8,3.97-.29,1.67-1.74,2.85-3.38,2.85ZM482.79,412.38c-.19,0-.39-.02-.59-.05l-.85-.15c-1.87-.32-3.12-2.1-2.8-3.97.32-1.87,2.1-3.12,3.97-2.8l.85.15c1.87.32,3.12,2.1,2.8,3.97-.29,1.67-1.74,2.85-3.38,2.85ZM466.72,409.6c-.19,0-.39-.02-.59-.05l-.24-.04c-1.87-.32-3.12-2.1-2.8-3.97.32-1.87,2.1-3.12,3.97-2.8l.24.04c1.87.32,3.12,2.1,2.8,3.97-.29,1.67-1.74,2.85-3.38,2.85Z"></path>
      <path class="cls-1" d="M456.2,388.06c-.31,0-.62-.04-.93-.13-1.83-.52-2.89-2.41-2.37-4.24,6.74-23.89,19.63-45.84,37.29-63.5,2.23-2.23,4.56-4.42,6.92-6.49,1.43-1.25,3.6-1.11,4.85.31,1.25,1.42,1.11,3.59-.31,4.85-2.25,1.98-4.47,4.06-6.6,6.19-16.83,16.83-29.11,37.75-35.54,60.51-.43,1.51-1.8,2.5-3.3,2.5Z"></path>
      <path class="cls-1" d="M601.93,566.13c-12.2,0-24.49-1.66-36.53-5.05-1.83-.51-2.89-2.41-2.37-4.24.51-1.83,2.41-2.89,4.24-2.37,40.4,11.38,83.74,2.22,115.91-24.51,1.46-1.21,3.62-1.01,4.84.45,1.21,1.46,1.01,3.62-.45,4.84-24.32,20.21-54.69,30.89-85.63,30.89Z"></path>
      <path class="cls-1" d="M634.65,590.09c4.37,4.37,4.37,11.47,0,15.84s-11.47,4.37-15.84,0c-4.37-4.37-4.37-11.47,0-15.84,4.37-4.37,11.47-4.37,15.84,0ZM621.63,592.91c-2.82,2.82-2.82,7.39,0,10.21s7.39,2.82,10.21,0,2.82-7.39,0-10.21c-2.82-2.82-7.39-2.82-10.21,0ZM623.12,594.4c-1.99,1.99-1.99,5.23,0,7.22s5.23,1.99,7.22,0c1.99-1.99,1.99-5.23,0-7.22s-5.23-1.99-7.22,0Z"></path>
    </g>
  </g><style>@media (prefers-color-scheme: light) { :root { filter: contrast(1) brightness(0.7); } }
</style></svg>